<svg width="14" height="14" viewBox="0 0 14 14" fill="none" xmlns="http://www.w3.org/2000/svg">
<path d="M0.5 4.24585V11.8271C0.5 12.5177 1.05938 13.0771 1.75 13.0771H9.33125C10.0219 13.0771 10.5813 12.5177 10.5813 11.8271V4.24585C10.5813 3.55522 10.0219 2.99585 9.33125 2.99585H1.75C1.05938 2.99585 0.5 3.55522 0.5 4.24585Z" fill="white"/>
<path d="M3.41797 1.32715V2.21465C3.41797 2.2834 3.47422 2.33965 3.54297 2.33965H9.73672C10.5617 2.33965 11.2367 3.01465 11.2367 3.83965V10.0334C11.2367 10.1021 11.293 10.1584 11.3617 10.1584H12.2492C12.9398 10.1584 13.4992 9.59902 13.4992 8.9084V1.32715C13.4992 0.636523 12.9398 0.0771484 12.2492 0.0771484H4.66797C3.97734 0.0771484 3.41797 0.636523 3.41797 1.32715Z" fill="white"/>
</svg>
