<svg width="911" height="1024" viewBox="0 0 911 1024" fill="none" xmlns="http://www.w3.org/2000/svg">
<g filter="url(#filter0_d)">
<path d="M809.574 584.304C855.272 611.425 855.272 677.575 809.574 704.696L-28.7731 1202.26C-75.4347 1229.95 -134.5 1196.32 -134.5 1142.06L-134.5 146.938C-134.5 92.6772 -75.4348 59.0481 -28.7732 86.7419L809.574 584.304Z" fill="white"/>
</g>
<path d="M347.547 369.238L347.369 431.677L136.299 461.056L136.477 398.617L347.547 369.238Z" fill="#4045A9"/>
<path d="M193.794 455.842L193.617 518.281L88.4863 457.583L88.6636 395.145L193.794 455.842Z" fill="#4045A9"/>
<path d="M311.042 417.661L310.865 480.099L240.306 521.103L240.483 458.665L311.042 417.661Z" fill="#4045A9"/>
<path d="M240.337 482.714L240.16 545.152L219.475 533.21L219.652 470.772L240.337 482.714Z" fill="#4045A9"/>
<path d="M250.613 476.743L250.437 539.181L240.16 545.152L240.337 482.714L250.613 476.743Z" fill="#4045A9"/>
<path d="M172.425 498.216L172.249 560.655L146.391 545.725L146.569 483.287L172.425 498.216Z" fill="#4045A9"/>
<path d="M219.652 470.772L219.475 533.21L172.249 560.655L172.425 498.216L219.652 470.772Z" fill="#4045A9"/>
<path d="M347.547 369.238L136.477 398.618L214.625 443.737L285.184 402.733L311.042 417.661L240.483 458.665L250.613 476.743L240.337 482.714L219.652 470.772L172.425 498.216L146.569 483.287L193.794 455.842L88.6635 395.145L109.494 383.039L320.43 353.582L347.547 369.238Z" fill="#4A56CC"/>
<path d="M508.761 501.168L508.584 563.606C508.614 552.74 500.536 542.636 484.354 533.292C444.938 510.536 398.787 514.51 345.913 545.237C315.069 563.161 299.627 579.699 299.585 594.847L299.761 532.41C299.805 517.262 315.246 500.724 346.091 482.799C398.963 452.071 445.114 448.097 484.532 470.855C500.714 480.197 508.791 490.303 508.761 501.168Z" fill="#4045A9"/>
<path d="M544.123 505.593L543.947 568.032C543.893 587.355 525.604 607.63 489.084 628.853C422.145 667.753 360.378 670.874 303.809 638.213C277.127 622.81 263.811 606.798 263.858 590.182L264.035 527.744C263.988 544.361 277.304 560.371 303.986 575.775C360.555 608.436 422.321 605.316 489.26 566.416C525.783 545.192 544.069 524.917 544.123 505.593Z" fill="#4045A9"/>
<path d="M324.817 563.671C363.207 585.834 409.221 581.345 462.824 550.194C515.696 519.468 522.921 493.02 484.532 470.855C445.114 448.097 398.963 452.071 346.091 482.799C292.488 513.949 285.401 540.913 324.817 563.671ZM505.375 458.742C561.944 491.401 556.577 527.295 489.26 566.416C422.321 605.316 360.555 608.436 303.986 575.775C246.39 542.524 251.073 506.445 318.013 467.545C385.328 428.425 447.777 425.489 505.375 458.742Z" fill="#4A56CC"/>
<path d="M474.049 773.856L420.991 804.691C420.054 805.234 418.527 805.24 417.585 804.697L364.179 773.862C363.708 773.593 363.475 773.234 363.476 772.876L363.463 777.773C363.461 778.132 363.694 778.489 364.166 778.762L417.572 809.596C418.512 810.138 420.042 810.134 420.975 809.59L474.034 778.756C474.499 778.486 474.731 778.133 474.731 777.779L474.746 772.882C474.744 773.235 474.513 773.588 474.049 773.856Z" fill="#C93737"/>
<path d="M474.038 771.896C474.976 772.438 474.982 773.318 474.049 773.861L420.99 804.696C420.054 805.238 418.527 805.243 417.585 804.702L364.179 773.867C363.24 773.324 363.244 772.438 364.178 771.896L417.238 741.061C418.171 740.52 419.691 740.52 420.63 741.061L474.038 771.896Z" fill="#D93B3B"/>
<path d="M453.536 771.008L453.53 770.988C453.554 768.816 452.932 766.652 451.73 764.573L430.907 690.436L407.305 690.467L386.351 764.996C385.265 766.943 384.69 768.963 384.668 770.985L384.662 771.008H384.665C384.618 776.112 387.948 781.212 394.67 785.094C408.077 792.834 429.882 792.795 443.373 785.006C450.085 781.132 453.466 776.07 453.528 771.008H453.536Z" fill="#E83F3F"/>
<path d="M410.598 696.561C405.935 693.869 405.958 689.487 410.651 686.778C415.347 684.068 422.933 684.054 427.598 686.746C432.263 689.44 432.238 693.82 427.545 696.531C422.851 699.24 415.263 699.255 410.598 696.561Z" fill="#C93737"/>
<path d="M449.559 756.848L445.726 743.198C444.385 744.573 442.702 745.868 440.671 747.039C428.682 753.962 409.305 753.996 397.39 747.118C395.404 745.971 393.754 744.704 392.435 743.359L388.619 756.928C389.219 760.902 392.137 764.772 397.39 767.807C409.305 774.685 428.682 774.65 440.671 767.729C445.945 764.684 448.904 760.813 449.559 756.848Z" fill="#F2F2F2"/>
<path d="M436.556 710.547C426.078 714.801 412.089 714.847 401.625 710.669L396.531 728.788C396.82 728.969 397.084 729.16 397.39 729.338C409.305 736.217 428.683 736.181 440.671 729.26C441.014 729.061 441.314 728.847 441.638 728.643L436.556 710.547Z" fill="#F2F2F2"/>
<path d="M324.817 563.671C363.207 585.834 409.221 581.345 462.824 550.194C515.696 519.468 522.921 493.02 484.532 470.855C445.114 448.097 398.963 452.071 346.091 482.799C292.488 513.949 285.401 540.913 324.817 563.671ZM505.375 458.742C561.944 491.401 556.577 527.295 489.26 566.416C422.321 605.316 360.555 608.436 303.986 575.775C246.39 542.524 251.073 506.445 318.013 467.545C385.328 428.425 447.777 425.489 505.375 458.742Z" fill="#4A56CC"/>
<path d="M424.44 456.491L423.992 568.575C426.633 567.633 429.299 566.598 431.981 565.504L432.417 456.353C429.779 456.309 427.122 456.351 424.44 456.491Z" fill="#E2E2E2"/>
<path d="M432.417 456.353L432.498 436.12C429.849 435.958 427.189 435.886 424.522 435.86L424.44 456.491C427.122 456.351 429.779 456.309 432.417 456.353Z" fill="#E2E2E2"/>
<path d="M375.382 577.486C390.689 577.658 406.893 574.689 423.992 568.575L424.44 456.491C408.998 457.298 392.79 461.16 375.818 468.062L375.382 577.486Z" fill="#F2F2F2"/>
<path d="M424.44 456.491L424.522 435.86C408.641 435.698 392.44 437.913 375.92 442.505L375.818 468.062C392.79 461.16 408.999 457.298 424.44 456.491Z" fill="#F2F2F2"/>
<path d="M280.621 385.639L288.232 381.215C288.223 384.689 290.667 388.926 293.682 390.665L286.07 395.089C283.055 393.348 280.612 389.113 280.621 385.639Z" fill="#FDE169"/>
<path d="M280.645 377.387L288.257 372.962L288.232 381.215L280.621 385.639L280.645 377.387Z" fill="#FDE169"/>
<path d="M280.839 308.847L288.451 304.423L288.352 339.129L280.74 343.553L280.839 308.847Z" fill="#FDE169"/>
<path d="M327.582 419.056L335.194 414.632L365.397 432.069L357.786 436.493L327.582 419.056Z" fill="#FDE169"/>
<path d="M387.23 453.492L394.843 449.07L425.045 466.507L417.433 470.931L387.23 453.492Z" fill="#FDE169"/>
<path d="M446.877 487.93L454.489 483.506L484.692 500.945L477.081 505.369L446.877 487.93Z" fill="#FDE169"/>
<path d="M502.407 387.857L387.23 453.492L417.433 470.931L519.911 412.532L519.815 446.365L446.877 487.93L477.081 505.369L519.717 481.072L519.597 523.611C519.586 527.086 517.126 528.488 514.102 526.742L286.07 395.089C283.055 393.348 280.612 389.113 280.621 385.639L280.958 266.297C280.969 262.832 283.43 261.431 286.445 263.17L323.475 284.55L280.839 308.847L280.74 343.553L353.677 301.988L383.121 318.987L280.645 377.387L280.621 385.639C280.612 389.113 283.055 393.348 286.07 395.089L298.138 402.057L413.315 336.42L442.761 353.419L327.582 419.056L357.786 436.493L472.962 370.858L502.407 387.857Z" fill="#FDE169"/>
<path d="M286.07 395.089L293.682 390.665L305.75 397.633L298.138 402.057L286.07 395.089Z" fill="#FDE169"/>
<path d="M353.677 301.988L280.74 343.553L280.839 308.847L323.475 284.55L353.677 301.988Z" fill="#58595B"/>
<path d="M413.315 336.42L298.138 402.057L286.07 395.089C283.055 393.348 280.612 389.113 280.621 385.639L280.645 377.387L383.121 318.987L413.315 336.42Z" fill="#58595B"/>
<path d="M472.962 370.858L357.786 436.493L327.582 419.056L442.761 353.419L472.962 370.858Z" fill="#58595B"/>
<path d="M519.815 446.365L519.717 481.072L477.081 505.369L446.877 487.93L519.815 446.365Z" fill="#58595B"/>
<path d="M514.474 394.825C517.498 396.569 519.944 400.805 519.933 404.269L519.91 412.532L417.433 470.931L387.23 453.492L502.407 387.857L514.474 394.825Z" fill="#58595B"/>
<path d="M522.079 390.401L510.011 383.433L480.567 366.434L450.364 348.997L420.919 331.996L390.727 314.563L361.281 297.564L331.078 280.127L294.049 258.748C292.531 257.872 291.155 257.792 290.16 258.37L282.548 262.793C283.543 262.216 284.919 262.294 286.436 263.17L323.466 284.55L353.669 301.988L383.113 318.987L413.307 336.42L442.752 353.419L472.955 370.858L502.399 387.857L514.467 394.825C517.491 396.569 519.936 400.805 519.926 404.269L519.903 412.532L519.808 446.365L519.709 481.072L519.588 523.611C519.583 525.336 518.973 526.551 517.989 527.123L525.601 522.7C526.586 522.129 527.195 520.914 527.2 519.187L527.321 476.648L527.419 441.943L527.515 408.109L527.539 399.846C527.55 396.381 525.103 392.146 522.079 390.401Z" fill="#ECD262"/>
<path d="M489.653 494.268L307.239 388.953C306.107 388.298 305.409 387.089 305.409 385.78V298.819C305.409 296.001 308.46 294.238 310.901 295.649L493.315 400.964C494.448 401.617 495.147 402.826 495.147 404.135V491.097C495.147 493.915 492.094 495.677 489.653 494.268Z" fill="#E83F3F"/>
<path d="M329.04 343.946V323.246L332.841 325.442V346.139C332.841 352.615 335.649 357.474 341.263 360.716C346.878 363.958 349.687 362.342 349.687 355.866V335.169L353.487 337.361V358.06C353.487 366.893 349.413 368.957 341.263 364.252C333.115 359.546 329.04 352.778 329.04 343.946Z" fill="white"/>
<path d="M360.267 374.988V341.276L364.069 343.471L382.044 381.006V353.85L385.639 355.925V389.636L381.839 387.442L363.863 349.67V377.064L360.267 374.988Z" fill="white"/>
<path d="M403.308 396.301C410.499 400.452 414.094 397.781 414.094 388.289C414.094 380.023 410.499 373.813 403.308 369.663L396.426 365.689V392.327L403.308 396.301ZM392.625 393.669V359.957L403.308 366.125C413.033 371.74 417.895 379.859 417.895 390.483C417.895 402.334 413.033 405.452 403.308 399.837L392.625 393.669Z" fill="white"/>
<path d="M442.649 388.839V392.375L427.24 383.48V394.797L441.93 403.276V406.813L427.24 398.333V410.12L442.959 419.194V422.73L423.442 411.461V377.75L442.649 388.839Z" fill="white"/>
<path d="M448.71 426.05V392.339L461.243 399.575C466.831 402.801 469.625 407.11 469.625 412.5C469.625 416.885 466.891 418.553 461.428 417.503L471.514 439.216L466.502 436.322L457.154 415.767V412.915C462.77 415.135 465.578 414.281 465.578 410.352C465.578 407.24 464.016 404.782 460.893 402.979L452.51 398.14V428.245L448.71 426.05Z" fill="white"/>
<path d="M336.486 388.073C335.343 387.836 334.103 387.335 332.773 386.567C328.129 383.886 325.81 379.9 325.81 374.608C325.81 369.601 328.129 368.437 332.773 371.117C334.103 371.885 335.343 372.813 336.486 373.9V375.606C335.343 374.447 334.165 373.52 332.958 372.823C329.337 370.732 327.528 371.658 327.528 375.6C327.528 379.826 329.337 382.985 332.958 385.076C334.165 385.773 335.343 386.203 336.486 386.368V388.073Z" fill="white"/>
<path d="M345.521 392.328C348.691 394.159 350.275 393.018 350.275 388.904C350.275 384.848 348.691 381.906 345.521 380.076C342.285 378.206 340.665 379.3 340.665 383.356C340.665 387.469 342.285 390.46 345.521 392.328ZM338.855 382.374C338.855 377.211 341.077 375.911 345.521 378.477C349.898 381.005 352.086 384.85 352.086 390.013C352.086 395.149 349.898 396.454 345.521 393.927C341.077 391.36 338.855 387.51 338.855 382.374Z" fill="white"/>
<path d="M354.78 399.164V383.929L356.498 384.921L364.622 401.885V389.612L366.247 390.55V405.785L364.529 404.794L356.404 387.722V400.104L354.78 399.164Z" fill="white"/>
<path d="M369.218 406.969V405.157C370.611 406.529 372.115 407.682 373.73 408.616C376.015 409.934 377.158 409.634 377.158 407.717C377.158 406.082 376.315 404.779 374.632 403.808L372.923 402.82C370.143 401.216 368.753 399.028 368.753 396.259C368.753 393.347 370.534 392.918 374.092 394.972C375.641 395.868 377.079 396.91 378.41 398.105V399.916C377.079 398.58 375.641 397.465 374.092 396.571C371.679 395.178 370.471 395.404 370.471 397.251C370.471 398.884 371.288 400.174 372.923 401.116L374.632 402.102C377.461 403.735 378.876 405.938 378.876 408.708C378.876 411.691 377.161 412.193 373.73 410.212C372.115 409.281 370.611 408.199 369.218 406.969Z" fill="white"/>
<path d="M390.342 404.461V406.06L386.163 403.648V417.285L384.445 416.294V402.655L380.268 400.243V398.645L390.342 404.461Z" fill="white"/>
<path d="M392.386 420.877V405.64L398.049 408.911C400.575 410.369 401.837 412.317 401.837 414.752C401.837 416.735 400.602 417.488 398.132 417.014L402.691 426.827L400.425 425.519L396.201 416.23V414.94C398.74 415.944 400.008 415.558 400.008 413.782C400.008 412.376 399.302 411.265 397.89 410.45L394.102 408.263V421.868L392.386 420.877Z" fill="white"/>
<path d="M404.409 421.938V412.582L406.127 413.575V422.93C406.127 425.856 407.396 428.053 409.935 429.518C412.471 430.983 413.741 430.251 413.741 427.325V417.97L415.459 418.962V428.318C415.459 432.31 413.617 433.242 409.935 431.116C406.25 428.989 404.409 425.93 404.409 421.938Z" fill="white"/>
<path d="M428.551 441.225C427.407 440.99 426.168 440.488 424.837 439.719C420.194 437.039 417.872 433.054 417.872 427.762C417.872 422.754 420.194 421.589 424.837 424.271C426.168 425.039 427.407 425.966 428.551 427.054V428.759C427.407 427.6 426.231 426.672 425.024 425.975C421.401 423.885 419.592 424.81 419.592 428.753C419.592 432.98 421.401 436.139 425.024 438.229C426.231 438.926 427.407 439.357 428.551 439.52V441.225Z" fill="white"/>
<path d="M440.344 433.33V434.928L436.164 432.514V446.153L434.447 445.162V431.524L430.27 429.11V427.513L440.344 433.33Z" fill="white"/>
<path d="M444.383 435.661V450.899L442.664 449.906V434.669L444.383 435.661Z" fill="white"/>
<path d="M454.021 454.971C457.19 456.8 458.775 455.659 458.775 451.547C458.775 447.49 457.19 444.547 454.021 442.717C450.785 440.849 449.164 441.941 449.164 445.997C449.164 450.111 450.785 453.102 454.021 454.971ZM447.354 445.017C447.354 439.852 449.577 438.554 454.021 441.119C458.398 443.646 460.584 447.491 460.584 452.656C460.584 457.791 458.398 459.097 454.021 456.57C449.577 454.003 447.354 450.152 447.354 445.017Z" fill="white"/>
<path d="M463.28 461.807V446.57L464.995 447.562L473.122 464.527V452.253L474.746 453.192V468.428L473.028 467.436L464.904 450.365V462.745L463.28 461.807Z" fill="white"/>
<path d="M237.503 647.015L237.519 653.011L251.536 661.156L251.519 655.16L237.503 647.015Z" fill="#E8E8E8"/>
<path d="M254.605 665.452L254.588 659.454C254.584 657.898 253.561 656.348 251.519 655.16L251.535 661.156C253.578 662.344 254.6 663.896 254.605 665.452Z" fill="#E8E8E8"/>
<path d="M274.331 666.2L274.348 672.197L278.625 663.059L278.609 657.063L274.331 666.2Z" fill="#E8E8E8"/>
<path d="M239.724 679.512L239.742 685.508L255.532 683.062L255.516 677.065L239.724 679.512Z" fill="#E8E8E8"/>
<path d="M217.419 666.549L217.435 672.545L239.742 685.508L239.724 679.512L217.419 666.549Z" fill="#E8E8E8"/>
<path d="M255.516 677.065L255.532 683.062L312.363 716.087L312.347 710.091L255.516 677.065Z" fill="#E8E8E8"/>
<path d="M332.09 716.836L332.106 722.833C332.102 721.258 333.143 719.68 335.226 718.478C339.37 716.084 346.053 716.084 350.165 718.474L350.148 712.477C346.036 710.088 339.353 710.088 335.208 712.482C333.124 713.683 332.085 715.262 332.09 716.836Z" fill="#E8E8E8"/>
<path d="M364.166 720.624L364.182 726.62L369.276 715.739L369.259 709.742L364.166 720.624Z" fill="#E8E8E8"/>
<path d="M350.148 712.477L350.165 718.474L364.182 726.62L364.166 720.624L350.148 712.477Z" fill="#E8E8E8"/>
<path d="M308.069 719.23L308.086 725.226L330.391 738.188L330.375 732.191L308.069 719.23Z" fill="#E8E8E8"/>
<path d="M330.375 732.191L330.391 738.188L349.192 735.275L349.175 729.278L330.375 732.191Z" fill="#E8E8E8"/>
<path d="M222.514 655.669L217.419 666.549L239.724 679.512L255.516 677.065L312.347 710.091L308.069 719.23L330.375 732.191L349.175 729.278L335.159 721.131C331.047 718.742 331.068 714.871 335.208 712.482C339.353 710.088 346.036 710.088 350.148 712.477L364.166 720.624L369.259 709.742L346.953 696.779L331.162 699.228L274.331 666.2L278.609 657.063L256.303 644.1L237.503 647.015L251.519 655.16C255.631 657.551 255.61 661.422 251.464 663.814C247.325 666.203 240.642 666.203 236.53 663.814L222.514 655.669Z" fill="#F4F4F4"/>
<path d="M14.0682 525.538L14.0257 540.389L14 534.997L14.0409 520.144L14.0682 525.538Z" fill="#E2E2E2"/>
<path d="M14.0985 530.927L14.0561 545.779L14.0258 540.389L14.0682 525.538L14.0985 530.927Z" fill="#E2E2E2"/>
<path d="M103.558 510.495L103.517 525.345C103.516 525.615 103.369 525.885 103.069 526.111L103.111 511.258C103.411 511.032 103.558 510.763 103.558 510.495Z" fill="#E8E8E8"/>
<path d="M110.581 530.927L110.538 545.778C110.541 546.414 109.731 546.955 108.64 547.035L108.682 532.183C109.772 532.103 110.584 531.563 110.581 530.927Z" fill="#E8E8E8"/>
<path d="M103.729 540.595L103.687 555.446C103.686 555.768 103.472 556.09 103.054 556.332L103.096 541.481C103.514 541.237 103.729 540.916 103.729 540.595Z" fill="#E8E8E8"/>
<path d="M20.8498 525.329L20.8922 510.478C20.8922 510.751 21.0437 511.026 21.3543 511.26L21.3119 526.111C21.0028 525.879 20.8498 525.603 20.8498 525.329Z" fill="#E8E8E8"/>
<path d="M103.111 511.258L103.069 526.111L94.3436 532.68L94.386 517.829L103.111 511.258Z" fill="#E8E8E8"/>
<path d="M30.1447 517.829L30.1022 532.682L21.3117 526.111L21.3541 511.26L30.1447 517.829Z" fill="#E8E8E8"/>
<path d="M82.985 525.597L82.9426 540.448C82.9516 537.363 80.9154 534.272 76.8398 531.919C68.7401 527.244 55.6452 527.244 47.5986 531.919C43.6018 534.242 41.6019 537.281 41.5928 540.327L41.6352 525.476C41.6443 522.43 43.6442 519.391 47.641 517.069C55.6876 512.391 68.7825 512.391 76.8822 517.069C80.9578 519.422 82.9941 522.511 82.985 525.597Z" fill="#E8E8E8"/>
<path d="M16.0106 532.183L15.9681 547.035C15.4757 546.998 15.0364 546.866 14.703 546.673C14.3046 546.445 14.0576 546.126 14.0561 545.779L14.0985 530.927C14.1 531.276 14.3455 531.592 14.7454 531.822C15.0772 532.015 15.5166 532.145 16.0106 532.183Z" fill="#E8E8E8"/>
<path d="M108.682 532.183L108.64 547.035L94.4344 548.095L94.4768 533.242L108.682 532.183Z" fill="#E8E8E8"/>
<path d="M30.2356 533.242L30.1932 548.095L15.9681 547.035L16.0105 532.183L30.2356 533.242Z" fill="#E8E8E8"/>
<path d="M21.0193 555.434L21.0618 540.583C21.0603 540.912 21.2784 541.236 21.7057 541.483L21.6633 556.335C21.236 556.088 21.0193 555.761 21.0193 555.434Z" fill="#E8E8E8"/>
<path d="M103.096 541.481L103.054 556.332L96.4889 560.147L96.5313 545.296L103.096 541.481Z" fill="#E8E8E8"/>
<path d="M28.3084 545.296L28.2675 560.147L21.6632 556.335L21.7056 541.483L28.3084 545.296Z" fill="#E8E8E8"/>
<path d="M96.5314 545.296L96.4889 560.147L89.9286 563.959L89.971 549.108L96.5314 545.296Z" fill="#E8E8E8"/>
<path d="M87.0922 549.213L87.0498 564.065L75.6776 558.994L75.72 544.142L87.0922 549.213Z" fill="#E8E8E8"/>
<path d="M34.9126 549.108L34.8702 563.959L28.2675 560.147L28.3084 545.296L34.9126 549.108Z" fill="#E8E8E8"/>
<path d="M49.1108 544.14L49.0683 558.991L37.7537 564.068L37.7961 549.216L49.1108 544.14Z" fill="#E8E8E8"/>
<path d="M89.971 549.108L89.9285 563.959C89.1543 564.409 87.9256 564.454 87.0499 564.065L87.0923 549.213C87.968 549.604 89.1967 549.558 89.971 549.108Z" fill="#E8E8E8"/>
<path d="M37.796 549.216L37.7536 564.068C36.887 564.454 35.6507 564.409 34.8704 563.959L34.9128 549.108C35.6916 549.56 36.9294 549.604 37.796 549.216Z" fill="#E8E8E8"/>
<path d="M75.7201 544.142L75.6777 558.994L73.8929 567.229L73.9353 552.376L75.7201 544.142Z" fill="#E8E8E8"/>
<path d="M50.9848 552.376L50.9439 567.229L49.0682 558.991L49.1106 544.14L50.9848 552.376Z" fill="#E8E8E8"/>
<path d="M73.9353 552.376L73.8929 567.229C73.7565 567.86 72.8323 568.329 71.7339 568.33L71.7763 553.478C72.8732 553.478 73.7989 553.008 73.9353 552.376Z" fill="#E8E8E8"/>
<path d="M71.7764 553.478L71.7341 568.33L62.4238 568.332L62.4663 553.479L71.7764 553.478Z" fill="#E8E8E8"/>
<path d="M62.4661 553.479L62.4237 568.332H53.118L53.159 553.479H62.4661Z" fill="#E8E8E8"/>
<path d="M53.1589 553.479L53.118 568.332C52.5195 568.332 51.9696 568.191 51.5711 567.96C51.2378 567.768 51.009 567.513 50.9438 567.229L50.9848 552.376C51.0514 552.661 51.2802 552.916 51.6135 553.108C52.012 553.34 52.5604 553.479 53.1589 553.479Z" fill="#E8E8E8"/>
<path d="M47.7397 534.004C55.8393 538.68 68.9297 538.683 76.9778 534.006C85.0245 529.329 84.982 521.744 76.8824 517.069C68.7827 512.391 55.6878 512.391 47.6412 517.069C39.593 521.746 39.64 529.327 47.7397 534.004ZM103.268 539.813C103.943 540.319 103.869 541.031 103.096 541.481L96.5315 545.296L89.9712 549.108C89.197 549.558 87.9683 549.604 87.0925 549.213L75.7203 544.142L73.9355 552.376C73.7992 553.008 72.8734 553.478 71.7765 553.478L62.4663 553.479H53.1591C52.5607 553.479 52.0122 553.34 51.6137 553.108C51.2804 552.916 51.0516 552.661 50.985 552.376L49.1108 544.14L37.7961 549.216C36.9295 549.604 35.6917 549.56 34.9129 549.108L28.3087 545.296L21.7059 541.483C20.9272 541.034 20.8453 540.318 21.515 539.816L30.2358 533.242L16.0107 532.183C15.5168 532.145 15.0774 532.015 14.7456 531.822C14.3456 531.592 14.1002 531.275 14.0986 530.927L14.0683 525.538L14.0411 520.144C14.0381 519.509 14.8471 518.971 15.9364 518.891L30.1449 517.829L21.3544 511.26C20.6787 510.754 20.7529 510.042 21.5271 509.592L28.0875 505.78L34.6508 501.963C35.425 501.515 36.6538 501.469 37.5295 501.859L48.9017 506.93L50.6835 498.698C50.8198 498.066 51.7471 497.594 52.8455 497.594H62.1512L71.4629 497.592C72.0599 497.592 72.6083 497.733 73.0053 497.962C73.3401 498.154 73.5673 498.41 73.6325 498.698L75.5112 506.931L86.8304 501.859C87.694 501.469 88.9273 501.516 89.7061 501.966L96.3088 505.778L102.913 509.592C103.692 510.042 103.777 510.755 103.112 511.258L94.3862 517.829L108.607 518.89C109.104 518.928 109.546 519.059 109.879 519.252C110.278 519.481 110.522 519.797 110.525 520.144L110.551 525.538L110.581 530.927C110.584 531.563 109.772 532.103 108.683 532.183L94.4771 533.242L103.268 539.813Z" fill="#F4F4F4"/>
<path d="M185.773 428.527L151.111 339.009C150.079 336.35 148.272 334.276 146.458 333.229C144.646 332.182 142.832 332.167 141.789 333.628L106.733 382.892C104.646 385.812 107.223 392.465 111.363 394.855L181.091 435.113C185.232 437.504 187.837 433.843 185.773 428.527Z" fill="#E83F3F"/>
<path d="M194.683 423.35L160.021 333.831C158.989 331.173 157.18 329.098 155.368 328.052C153.982 327.251 152.593 327.054 151.55 327.66L142.64 332.837C143.684 332.231 145.072 332.428 146.458 333.229C148.272 334.276 150.079 336.35 151.111 339.009L185.773 428.527C187.071 431.871 186.521 434.56 184.905 435.499L193.815 430.322C195.432 429.383 195.982 426.694 194.683 423.35Z" fill="#C93737"/>
<path d="M143.295 404.437L143.311 398.76L149.087 402.095L149.07 407.772L143.295 404.437Z" fill="white"/>
<path d="M143.419 360.571L149.194 363.904L149.102 396.416L143.326 393.083L143.419 360.571Z" fill="white"/>
<path d="M720.095 584.329L719.917 646.768L508.849 676.147L509.025 613.708L720.095 584.329Z" fill="#4045A9"/>
<path d="M566.342 670.933L566.165 733.372L461.034 672.673L461.211 610.236L566.342 670.933Z" fill="#4045A9"/>
<path d="M683.59 632.753L683.414 695.191L612.854 736.194L613.031 673.756L683.59 632.753Z" fill="#4045A9"/>
<path d="M612.887 697.805L612.71 760.243L592.023 748.3L592.2 685.861L612.887 697.805Z" fill="#4045A9"/>
<path d="M623.162 691.834L622.985 754.272L612.71 760.243L612.887 697.805L623.162 691.834Z" fill="#4045A9"/>
<path d="M544.975 713.307L544.797 775.746L518.939 760.816L519.117 698.378L544.975 713.307Z" fill="#4045A9"/>
<path d="M592.2 685.861L592.023 748.3L544.797 775.746L544.975 713.307L592.2 685.861Z" fill="#4045A9"/>
<path d="M720.095 584.329L509.025 613.708L587.173 658.828L657.732 617.823L683.59 632.753L613.031 673.756L623.162 691.834L612.887 697.805L592.2 685.861L544.975 713.307L519.117 698.378L566.342 670.933L461.211 610.236L482.042 598.13L692.978 568.674L720.095 584.329Z" fill="#4A56CC"/>
<path d="M187.425 643.437C164.794 656.504 127.986 656.437 105.214 643.291C82.4411 630.141 82.3259 608.892 104.957 595.826C127.588 582.76 164.394 582.826 187.167 595.974C209.94 609.122 210.055 630.371 187.425 643.437Z" fill="#ECD262"/>
<path d="M204.322 619.893H88.059V606.068H204.322V619.893Z" fill="#ECD262"/>
<path d="M187.425 629.062C164.794 642.128 127.986 642.062 105.214 628.914C82.4411 615.767 82.3259 594.515 104.957 581.451C127.588 568.385 164.394 568.451 187.167 581.599C209.94 594.747 210.055 615.998 187.425 629.062Z" fill="#FDE169"/>
<path d="M144.025 592.379V600.507L140.396 600.501L140.398 597.48L140.401 595.394L140.402 592.374L144.025 592.379Z" fill="white"/>
<path d="M148.232 614.913L145.029 616.751L143.657 615.958L145.258 615.039L142.055 613.192L140.454 614.108L134.681 610.777L136.281 609.857L133.08 608.009L131.478 608.927L126.212 605.888L129.416 604.05L148.232 614.913Z" fill="white"/>
<path d="M149.273 595.409L149.275 597.497L144.025 597.486L144.023 595.4L149.273 595.409Z" fill="white"/>
<path d="M154.43 606.515L159.679 606.525V608.613L154.43 608.603V606.515Z" fill="white"/>
<path d="M163.306 603.512L163.307 606.533L163.306 608.621V611.64L159.68 611.634L159.679 608.613V606.525V603.504L163.306 603.512Z" fill="white"/>
<path d="M135.152 595.386L140.401 595.394L140.399 597.48L135.148 597.471L135.152 595.386Z" fill="white"/>
<path d="M123.854 618.064C136.168 625.175 156.202 625.211 168.515 618.149C180.828 611.087 180.828 599.558 168.515 592.449C156.202 585.34 136.169 585.302 123.856 592.364C111.543 599.429 111.543 610.957 123.854 618.064ZM171.724 590.608C185.803 598.738 185.803 611.925 171.722 620.002C157.642 628.078 134.733 628.031 120.653 619.902C106.573 611.774 106.573 598.592 120.653 590.517C134.734 582.44 157.644 582.479 171.724 590.608Z" fill="white"/>
<path d="M145.258 615.039L143.657 615.958L141.085 617.433C137.728 619.358 132.266 619.348 128.907 617.41C125.55 615.471 125.55 612.327 128.907 610.403L131.478 608.927L133.08 608.009L136.281 609.857L134.681 610.777L132.11 612.249C130.519 613.163 130.519 614.654 132.11 615.574C133.701 616.49 136.292 616.496 137.884 615.584L140.454 614.108L142.055 613.192L145.258 615.039Z" fill="white"/>
<path d="M168.557 606.542V608.63L163.306 608.621L163.307 606.533L168.557 606.542Z" fill="white"/>
<path d="M625.874 558.227C627.585 559.215 629.254 559.979 630.869 560.53C629.007 561.614 627.145 562.694 625.283 563.776C623.668 563.226 621.997 562.461 620.288 561.474C621.964 560.5 624.199 559.202 625.874 558.227Z" fill="#E83F3F"/>
<path d="M601.142 515.39C601.096 531.11 612.193 550.329 625.874 558.227L620.288 561.474C606.607 553.575 595.512 534.357 595.556 518.635C595.579 510.826 598.347 505.325 602.802 502.734L608.389 499.489C603.933 502.078 601.163 507.58 601.142 515.39Z" fill="#E83F3F"/>
<path d="M609.27 544.128L614.856 540.881C617.953 545.261 621.77 549.008 625.894 551.39L620.308 554.635C616.185 552.255 612.369 548.507 609.27 544.128Z" fill="white"/>
<path d="M601.515 522.076L607.099 518.829C607.087 523.576 608.41 528.729 610.657 533.609L605.072 536.856C602.824 531.976 601.501 526.823 601.515 522.076Z" fill="white"/>
<path d="M639.301 552.691L633.716 555.937C630.285 557.93 625.538 557.655 620.308 554.635L625.894 551.39C631.125 554.409 635.872 554.684 639.301 552.691Z" fill="white"/>
<path d="M607.021 509.992L612.605 506.746C609.22 508.714 607.116 512.894 607.099 518.829L601.515 522.076C601.531 516.14 603.633 511.96 607.021 509.992Z" fill="white"/>
<path d="M630.869 560.53C635.754 562.198 640.127 561.915 643.52 559.943L637.936 563.189C634.542 565.16 630.169 565.445 625.283 563.776C627.145 562.694 629.007 561.614 630.869 560.53Z" fill="#E83F3F"/>
<path d="M607.021 509.992L612.605 506.746C616.037 504.752 620.785 505.028 626.017 508.051L620.431 511.296C615.197 508.275 610.449 507.998 607.021 509.992Z" fill="#E83F3F"/>
<path d="M602.802 502.736L608.389 499.489C612.902 496.866 619.152 497.229 626.035 501.204L620.45 504.449C613.566 500.475 607.317 500.112 602.802 502.736Z" fill="white"/>
<path d="M644.81 540.601C644.793 546.539 642.69 550.722 639.301 552.691L633.716 555.937C637.104 553.969 639.207 549.785 639.225 543.848C639.237 539.109 637.915 533.948 635.668 529.076L641.252 525.83C643.502 530.703 644.824 535.862 644.81 540.601Z" fill="#E83F3F"/>
<path d="M609.27 544.128L614.856 540.881L641.252 525.83L635.668 529.076L609.27 544.128Z" fill="#E83F3F"/>
<path d="M605.072 536.856L610.657 533.609L637.062 518.561L631.476 521.808L605.072 536.856Z" fill="white"/>
<path d="M626.017 508.051C630.139 510.431 633.957 514.17 637.062 518.561L631.476 521.808C628.37 517.417 624.555 513.676 620.431 511.296C622.106 510.322 624.341 509.023 626.017 508.051Z" fill="#E83F3F"/>
<path d="M643.52 559.943L637.936 563.189C642.393 560.599 645.161 555.097 645.183 547.289C645.226 531.568 634.131 512.348 620.45 504.449L626.035 501.204C639.718 509.102 650.813 528.321 650.769 544.042C650.746 551.85 647.979 557.352 643.52 559.943Z" fill="white"/>
<path d="M620.308 554.635C630.706 560.638 639.19 555.797 639.225 543.848C639.237 539.109 637.915 533.948 635.668 529.076L609.27 544.128C612.369 548.507 616.185 552.255 620.308 554.635ZM601.515 522.076C601.501 526.823 602.824 531.976 605.072 536.856L631.475 521.808C628.37 517.417 624.555 513.676 620.431 511.296C610.032 505.293 601.548 510.128 601.515 522.076ZM620.45 504.449C634.131 512.348 645.226 531.568 645.183 547.289C645.139 563.008 633.969 569.374 620.288 561.474C606.607 553.575 595.512 534.357 595.556 518.635C595.601 502.915 606.769 496.551 620.45 504.449Z" fill="white"/>
<path d="M609.27 544.128L635.668 529.076C637.915 533.948 639.237 539.109 639.225 543.848C639.19 555.797 630.706 560.638 620.308 554.635C616.185 552.255 612.369 548.507 609.27 544.128Z" fill="#E83F3F"/>
<path d="M620.431 511.296C624.555 513.676 628.37 517.417 631.476 521.808L605.072 536.856C602.824 531.976 601.501 526.823 601.515 522.076C601.548 510.128 610.033 505.293 620.431 511.296Z" fill="#E83F3F"/>
<path d="M620.288 561.474C633.969 569.374 645.139 563.008 645.183 547.289C645.226 531.568 634.131 512.348 620.45 504.449C606.769 496.551 595.601 502.915 595.556 518.635C595.512 534.357 606.607 553.575 620.288 561.474ZM652.49 508.207C655.596 509.999 658.105 514.344 658.096 517.914L657.887 591.452C657.876 595.018 655.35 596.459 652.244 594.665L588.249 557.717C585.143 555.925 582.634 551.579 582.644 548.01L582.853 474.472C582.862 470.904 585.388 469.465 588.493 471.257L652.49 508.207Z" fill="#E83F3F"/>
<path d="M658.076 504.96L594.08 468.011C592.515 467.11 591.1 467.025 590.077 467.619L584.493 470.866C585.514 470.272 586.93 470.355 588.493 471.257L652.49 508.207C655.596 509.999 658.105 514.344 658.096 517.914L657.887 591.45C657.882 593.224 657.256 594.471 656.247 595.058L661.832 591.811C662.841 591.226 663.468 589.978 663.471 588.205L663.68 514.667C663.691 511.099 661.182 506.754 658.076 504.96Z" fill="#C93737"/>
<defs>
<filter id="filter0_d" x="-179.5" y="31.8312" width="1078.35" height="1235.34" filterUnits="userSpaceOnUse" color-interpolation-filters="sRGB">
<feFlood flood-opacity="0" result="BackgroundImageFix"/>
<feColorMatrix in="SourceAlpha" type="matrix" values="0 0 0 0 0 0 0 0 0 0 0 0 0 0 0 0 0 0 127 0" result="hardAlpha"/>
<feOffset dx="5" dy="5"/>
<feGaussianBlur stdDeviation="25"/>
<feColorMatrix type="matrix" values="0 0 0 0 0.501961 0 0 0 0 0.74902 0 0 0 0 1 0 0 0 0.5 0"/>
<feBlend mode="normal" in2="BackgroundImageFix" result="effect1_dropShadow"/>
<feBlend mode="normal" in="SourceGraphic" in2="effect1_dropShadow" result="shape"/>
</filter>
</defs>
</svg>
