<svg width="16" height="14" viewBox="0 0 16 14" fill="none" xmlns="http://www.w3.org/2000/svg">
<path d="M0.644196 0.846927L1.54542 1.64545C0.892934 2.29386 0.5 3.15626 0.5 4.12408C0.5 6.66339 3.04867 8.70123 6.90952 11.8442L8.0018 12.7098L9.09048 11.841C9.83309 11.2373 10.5288 10.672 11.1633 10.1386L14.487 13.0771L15.3522 12.3106L1.51658 0.0771484L0.644196 0.846927ZM15.5 4.12088C15.5 2.04791 13.7012 0.44447 11.376 0.44447C10.0638 0.44447 8.82733 0.977885 8.0018 1.84668C7.17628 0.977885 5.9398 0.44447 4.62761 0.44447C4.3248 0.44447 4.0328 0.473217 3.75162 0.524323L12.8973 8.6086C14.5375 7.05307 15.5 5.6828 15.5 4.12088Z" fill="white"/>
</svg>
