<svg xmlns="http://www.w3.org/2000/svg" viewBox="0 0 488.28 109.2"><defs><style>.cls-1{fill:#dd0031;}.cls-2{fill:#fff;}.cls-3{fill:#282828;}</style></defs><g id="Слой_2" data-name="Слой 2"><g id="Слой_1-2" data-name="Слой 1"><path class="cls-1" d="M152.48,17.1a19.59,19.59,0,0,0-13.8-13.8C126.58,0,77.88,0,77.88,0s-48.7.1-60.8,3.4A19.6,19.6,0,0,0,3.28,17.2c-3.66,21.5-5.08,54.26.1,74.9a19.6,19.6,0,0,0,13.8,13.8c12.1,3.3,60.8,3.3,60.8,3.3s48.7,0,60.8-3.3a19.59,19.59,0,0,0,13.8-13.8C156.44,70.57,157.63,37.83,152.48,17.1Z"/><path class="cls-2" d="M78.47,9.27,38.36,99.2h15l8.06-20.12h34l8.06,20.12h15l-40-89.93Zm11.71,57.4H66.75L78.47,38.49Z"/><path class="cls-3" d="M226.08,99.3c-3.1-2.1-5.3-5.3-6.6-9.7s-1.9-10.2-1.9-17.5V62.2c0-7.3.7-13.3,2.2-17.7s3.8-7.7,7-9.7a23,23,0,0,1,12.4-3.1c5,0,9.1,1,12.1,3.1a18.08,18.08,0,0,1,6.7,9.7c1.4,4.4,2.1,10.3,2.1,17.6V72c0,7.3-.7,13.1-2.1,17.5s-3.6,7.6-6.7,9.7-7.3,3.1-12.5,3.1C233.38,102.4,229.18,101.3,226.08,99.3Zm17.3-10.7c.9-2.2,1.3-5.9,1.3-10.9V56.4c0-4.9-.4-8.5-1.3-10.7s-2.4-3.4-4.5-3.4-3.5,1.1-4.4,3.4-1.3,5.8-1.3,10.7V77.7c0,5,.4,8.7,1.2,10.9a4.48,4.48,0,0,0,4.5,3.3Q242,91.9,243.38,88.6Zm219.2-16.3v3.5l.4,9.9a10,10,0,0,0,1.6,4.8,4.62,4.62,0,0,0,3.8,1.5c2.3,0,3.9-.9,4.7-2.7s1.3-4.8,1.4-8.9l13.3.8a16.27,16.27,0,0,1,.1,2.4c0,6.3-1.7,11-5.2,14.1s-8.3,4.7-14.6,4.7c-7.6,0-12.9-2.4-15.9-7.1s-4.6-12.1-4.6-22V61.2c.34-17,3.33-29.45,20.9-29.5,5.3,0,9.3,1,12.1,2.9s4.8,4.9,6,9,1.7,9.7,1.7,16.9V72.2h-25.7Zm2-28.8a9.51,9.51,0,0,0-1.6,4.7c-.3,2.2-.4,10-.4,10v4.9h11.2V58.2c0,4.9-.1-7.7-.4-10s-.8-3.9-1.6-4.8a4.59,4.59,0,0,0-3.6-1.4A4.67,4.67,0,0,0,464.58,43.5ZM188.68,71,171.18,7.8h15.3s7.15,31.7,9.6,46.6h.4c2.78-15.82,9.8-46.6,9.8-46.6h15.3l-17.7,63.1v30.3h-15.1V71Z"/><path id="A" class="cls-3" d="M309.68,33v68.3h-12l-1.3-8.4h-.3c-3.3,6.3-8.2,9.5-14.7,9.5-11.77,0-13.08-10-13.2-18.4V33h15.4V83.1c0,3,.3,5.2,1,6.5,1.42,2.78,5.1,2.07,7.1.7a7.92,7.92,0,0,0,2.7-3.1V33Z"/><path class="cls-3" d="M351.48,20.2h-15.3v81.1h-15V20.2h-15.3V7.8h45.5V20.2Zm87.9,23.7c-.9-4.3-2.4-7.4-4.5-9.4s-4.9-2.9-8.6-2.9a14.09,14.09,0,0,0-7.9,2.4,16.46,16.46,0,0,0-5.7,6.3h-.1V4.3h-14.8v96.9h12.7l1.6-6.5h.3a14.08,14.08,0,0,0,5.3,5.5,16.26,16.26,0,0,0,7.9,2c5.2,0,9-2.4,11.5-7.2s3.7-12.3,3.7-22.4V61.8A91.61,91.61,0,0,0,439.38,43.9Zm-14.1,27.9a87.7,87.7,0,0,1-.6,11.7q-.6,4.2-2.1,6a4.84,4.84,0,0,1-3.9,1.8,6.75,6.75,0,0,1-6.1-3.6V48.9a9.27,9.27,0,0,1,2.7-4.6c2.2-2.47,6-2.5,7.7,0,.9,1.2,1.4,3.3,1.8,6.2s.5,7,.5,12.4Z"/><path id="A-2" data-name="A" class="cls-3" d="M388.58,33v68.3h-12l-1.3-8.4H375c-3.3,6.3-8.2,9.5-14.7,9.5-11.77,0-13.08-10-13.2-18.4V33h15.4V83.1c0,3,.3,5.2,1,6.5,1.42,2.78,5.1,2.07,7.1.7a7.92,7.92,0,0,0,2.7-3.1V33Z"/></g></g></svg>