<svg width="21" height="14" viewBox="0 0 21 14" fill="none" xmlns="http://www.w3.org/2000/svg">
<path d="M10.5 0.0771484C5.95536 0.0771484 2.08929 2.76324 0.5 6.57715C2.08929 10.3911 5.95536 13.0771 10.5 13.0771C15.0446 13.0771 18.9107 10.3911 20.5 6.57715C18.9107 2.76324 15.0446 0.0771484 10.5 0.0771484ZM10.5 10.9119C8 10.9119 5.95536 8.96192 5.95536 6.57715C5.95536 4.19238 8 2.24238 10.5 2.24238C13 2.24238 15.0446 4.19238 15.0446 6.57715C15.0446 8.96192 13 10.9119 10.5 10.9119ZM10.5 3.97715C9 3.97715 7.77232 5.14801 7.77232 6.57715C7.77232 8.00629 9 9.17715 10.5 9.17715C12 9.17715 13.2277 8.00629 13.2277 6.57715C13.2277 5.14801 12 3.97715 10.5 3.97715Z" fill="white"/>
</svg>
